<svg xmlns="http://www.w3.org/2000/svg" xmlns:xlink="http://www.w3.org/1999/xlink" id="Camada_2" data-name="Camada 2" viewBox="0 0 240 55"><defs><style>      .cls-1 {        fill: #00804b;      }      .cls-1, .cls-2 {        fill-rule: evenodd;      }      .cls-1, .cls-2, .cls-3, .cls-4, .cls-5, .cls-6 {        stroke-width: 0px;      }      .cls-2, .cls-6 {        fill: #ffce00;      }      .cls-3 {        fill: #243881;      }      .cls-4 {        fill: #fff;      }      .cls-5 {        fill: url(#Gradiente_sem_nome_27);      }    </style><linearGradient id="Gradiente_sem_nome_27" data-name="Gradiente sem nome 27" x1="165.25" y1="25.52" x2="243.6" y2="25.52" gradientUnits="userSpaceOnUse"><stop offset="0" stop-color="#ff9425"></stop><stop offset=".04" stop-color="#fba823"></stop><stop offset=".1" stop-color="#f8c222"></stop><stop offset=".16" stop-color="#f5d521"></stop><stop offset=".22" stop-color="#f3e121"></stop><stop offset=".28" stop-color="#f3e521"></stop><stop offset=".65" stop-color="#279f37"></stop><stop offset="1" stop-color="blue"></stop></linearGradient></defs><g id="Camada_1-2" data-name="Camada 1"><g><g><path class="cls-4" d="m106.78,25.45v-2.88h-5.74v-1.87h5.33v-2.87h-5.33v-1.82h5.76v-2.88h-8.89v12.32h8.87Zm-18.74-9.34h2c.9,0,1.58.3,2.06.92.48.62.73,1.37.73,2.25s-.25,1.65-.73,2.27c-.48.62-1.18.92-2.06.92h-2v-6.35Zm1.85,9.34c1.93,0,3.45-.55,4.53-1.65,1.1-1.1,1.65-2.6,1.65-4.5s-.55-3.42-1.63-4.52c-1.08-1.1-2.58-1.65-4.49-1.65h-5.01v12.32h4.96Zm-10.45-5.64l-5.69-6.69h-2.23v12.32h3.05v-6.6l5.59,6.6h2.35v-12.32h-3.06v6.69Zm-10.02,5.64v-2.88h-5.74v-1.87h5.33v-2.87h-5.33v-1.82h5.76v-2.88h-8.89v12.32h8.87Zm-10.97,0v-2.88h-5.74v-1.87h5.33v-2.87h-5.33v-1.82h5.76v-2.88h-8.89v12.32h8.87Zm-15.45-9.47c1.73-.13,1.88,2.77-.12,2.67h-1.86v-2.67h1.98Zm4.96,9.47l-2.66-4.57c1.51-.72,2.25-2.12,2.25-3.67,0-1.18-.38-2.15-1.15-2.92-.77-.78-1.88-1.17-3.36-1.17h-5.13v12.32h3.11v-4.09h1.22l2.16,4.09h3.56Zm-17.99-6.67v-2.8h1.78c.87,0,1.43.6,1.43,1.4s-.52,1.4-1.5,1.4h-1.71Zm-3.11-5.65v12.32h3.11v-3.87h1.56c1.65,0,2.88-.38,3.66-1.17.78-.78,1.18-1.78,1.18-3s-.38-2.23-1.15-3.05c-.75-.82-1.91-1.23-3.48-1.23h-4.89Zm-12.83,12.32v-5.92l3.08,4.32h1.17l3.08-4.32v5.92h3.08v-12.32h-2.31l-4.41,6.34-4.43-6.34h-2.3v12.32h3.05Zm-5.14,0v-2.88H3.13v-1.87h5.33v-2.87H3.13v-1.82h5.76v-2.88H0v12.32h8.87Z"></path><g><path class="cls-2" d="m3.05,38.81v-2.45h2.4c.88,0,1.36.55,1.36,1.23s-.45,1.22-1.43,1.22h-2.33Zm2.13-7.02c.72,0,1.13.48,1.13,1.03,0,.58-.4,1.05-1.26,1.05h-2v-2.08h2.13Zm2.5,2.92c1-.35,1.68-1.42,1.68-2.5,0-.82-.32-1.53-.95-2.13-.63-.62-1.51-.92-2.65-.92H0v12.32h6.04c1.18,0,2.13-.35,2.86-1.03.73-.68,1.1-1.55,1.1-2.6,0-1.53-.82-2.75-2.33-3.13Z"></path><path class="cls-2" d="m16.86,32.01c1.73-.13,1.88,2.77-.12,2.67h-1.86v-2.67h1.98Zm4.96,9.47l-2.66-4.57c1.51-.72,2.25-2.12,2.25-3.67,0-1.18-.38-2.15-1.15-2.92-.77-.78-1.88-1.17-3.36-1.17h-5.13v12.32h3.11v-4.09h1.22l2.16,4.09h3.56Z"></path><polygon class="cls-2" points="34.02 41.48 29.65 29.16 26.75 29.16 22.26 41.48 25.47 41.48 28.2 32.88 30.83 41.48 34.02 41.48"></polygon><polygon class="cls-2" points="44.71 41.48 44.71 38.65 39.07 38.65 44.53 31.61 44.53 29.16 34.92 29.16 34.92 31.99 40.33 31.99 34.72 39.13 34.72 41.48 44.71 41.48"></polygon><rect class="cls-6" x="46.58" y="29.16" width="3.13" height="12.32"></rect><polygon class="cls-2" points="61.24 41.48 61.24 38.51 55.26 38.51 55.26 29.16 52.14 29.16 52.14 41.48 61.24 41.48"></polygon></g><g><path class="cls-1" d="m163.91,26.13l-19.27-5.15-2.5-.67h0s-25.25-6.74-25.25-6.74c-.42-.11-.88-.02-1.23.25-.35.27-.55.69-.55,1.13v1.24l13.15,3.51h0s2.11.56,2.11.56l16.2,4.33c.52.14.89.61.89,1.15s-.36,1.01-.89,1.16l-16.2,4.33h0l-2.11.56h0s-13.15,3.51-13.15,3.51v4.78c0,.44.21.85.55,1.12.25.2.55.3.86.3.13,0,.24-.02.37-.05l25.25-6.74h0s2.5-.67,2.5-.67h0s19.27-5.15,19.27-5.15c.62-.17,1.05-.73,1.05-1.37s-.43-1.21-1.05-1.37"></path><path class="cls-2" d="m115.1,19.72v15.57l3.27-.87h0s2.39-.64,2.39-.64l18.43-4.92c.59-.16,1.01-.7,1.01-1.31v-.04s0-.04,0-.04c0-.62-.41-1.15-1.01-1.31l-18.43-4.92h0s-2.39-.64-2.39-.64h0s-3.27-.87-3.27-.87Z"></path><path class="cls-3" d="m122.7,26.8l-7.6-2.03v5.45l7.6-2.03c.31-.08.52-.36.52-.68v-.02s0-.02,0-.02c0-.32-.21-.6-.52-.68"></path></g></g><g><path class="cls-5" d="m229.23,28.27h0s0,0,0,0c0-10.5-8.53-19.04-19.01-19.04-5.7,0-11.03,2.52-14.66,6.92h0s-16.29,20.92-16.29,20.92l8.1-34.24-4.71-2.82-8.99,7.99h0s-7.76,6.9-7.76,6.9l3.34.89,3.34.89,3.63-3.22h0s3.46-3.08,3.46-3.08l-9.05,38.23,5.07,2.44,24.26-31.15h0c2.53-3.11,6.28-4.89,10.28-4.89,7.31,0,13.25,5.95,13.25,13.27,0,7.32-5.96,13.73-13.25,13.27-10.4-.66-13.9-10.2-13.84-14.05l-4.43,6.04c2.28,7.95,9.61,13.79,18.27,13.79,10.48,0,19.01-8.54,19.01-19.04h0Z"></path><g><path class="cls-4" d="m202.07,39.34c-.62.07-1.17.12-1.75.19-2.52.31-5.01.84-7.5,1.3-.34.05-.67.12-1.03.1-.22,0-.46-.02-.65-.14-.26-.14-.43-.38-.41-.67.02-.34.26-.48.55-.53.5-.1,1.03-.19,1.56-.26,1.68-.26,3.38-.46,5.08-.58,1.65-.14,3.33-.26,4.99-.41.26-.02.46-.12.65-.29.58-.58,1.17-1.13,1.75-1.71,1.41-1.39,2.83-2.79,4.29-4.11.98-.91,2.01-1.78,3.12-2.57.26-.22.55-.41.89-.53.41-.14.72.02.82.43.05.22.02.43-.02.62-.17.89-.53,1.71-.89,2.52-.7,1.63-1.51,3.19-2.28,4.76q-.22.46.29.46c.6,0,1.2.02,1.8.02.7,0,1.37.1,2.04.17.02,0,.07.02.12.02.22.07.34.19.31.34-.05.22-.22.24-.38.24-.36-.02-.7-.07-1.06-.1-1.1,0-2.18.02-3.28,0-.29,0-.46.12-.58.38-1.13,2.38-2.25,4.78-3.28,7.21-.82,1.9-1.63,3.82-2.33,5.79-.22.65-.43,1.3-.6,1.97-.02.1-.05.22-.1.31-.05.1-.12.17-.26.14-.1-.02-.17-.1-.19-.22-.02-.14,0-.29.05-.43.29-1.35.74-2.62,1.2-3.89,1.22-3.27,2.61-6.48,4.05-9.66.17-.36.34-.7.48-1.06.05-.14.14-.26.12-.41-.07-.07-.17-.05-.26-.05-.86.05-1.73.12-2.59.17-.79.07-1.56.14-2.35.22-.36.02-.72.07-1.05.1-.22,0-.36.12-.48.26-.96.91-1.92,1.85-2.88,2.76-2.18,2.04-4.36,4.11-6.81,5.86-.81.6-1.68,1.15-2.61,1.51-.62.24-1.22.34-1.89.31-1.01-.07-1.85-.79-2.01-1.75-.02-.17-.02-.34.02-.5.14-.41.53-.6.93-.41.26.14.5.29.53.65,0,.12.07.26.12.38.07.17.22.29.43.29.29.02.6.02.91-.05,1.03-.22,1.97-.72,2.85-1.3,1.75-1.1,3.4-2.38,4.99-3.7,1.49-1.22,2.9-2.5,4.32-3.82.1-.07.22-.14.29-.36Zm11.68-9.66c-.31.07-.53.22-.74.36-.5.34-.98.7-1.44,1.08-1.25,1.06-2.42,2.16-3.57,3.29-1.27,1.22-2.49,2.45-3.74,3.67-.02.02-.1.07-.05.14.5-.07,1.03-.07,1.56-.12,1.29-.07,2.59-.12,3.88-.17.29,0,.46-.1.58-.36.58-1.3,1.17-2.55,1.77-3.82.53-1.13,1.13-2.23,1.56-3.41.07-.19.17-.38.19-.67Z"></path><path class="cls-4" d="m216.38,43.95c.41-.41.84-.79,1.25-1.18.81-.74,1.65-1.47,2.59-2.07.26-.17.55-.31.86-.41.65-.17,1.18.22,1.2.89.02.34.02.7-.05,1.03-.02.24-.05.46,0,.67.02.31.14.41.48.41.41,0,.77-.12,1.15-.26,1.01-.36,2.01-.74,3.02-1.15.1-.05.22-.1.34-.12.1-.05.22-.07.26.07.07.12-.05.19-.14.24-.07.05-.17.1-.26.14-1.13.48-2.23.96-3.33,1.44-.29.12-.55.22-.84.26-.65.1-1.13-.19-1.34-.82-.17-.48-.12-.96-.07-1.47,0-.07,0-.12.02-.19.05-.43-.07-.53-.5-.38-.29.1-.55.24-.82.41-.96.62-1.85,1.34-2.66,2.14-.46.43-.86.89-1.29,1.32-.12.1-.22.22-.31.29-.38.31-.81.14-.91-.31-.07-.24-.05-.5,0-.74.41-1.73,1.15-3.29,2.16-4.73.07-.1.17-.19.24-.26.29-.24.58-.26.86-.07.26.19.36.5.26.82-.1.26-.24.53-.41.77-.58.96-1.13,1.95-1.65,2.93-.05.07-.1.17-.14.26.02.02.02.05.05.07Z"></path><path class="cls-4" d="m226.35,43.78c.1-1.25.53-2.35,1.41-3.27.17-.17.36-.29.6-.38.43-.17.86-.12,1.22.22.22.22.41.43.53.74.07.17.19.24.36.24.26.02.5.07.77.07h2.54c.12.02.26.02.24.17,0,.14-.14.1-.24.12-.7.05-1.37.07-2.04.07h-.72c-.7.05-.65.12-.7.65-.14,1.27-.89,2.16-1.99,2.76-.98.5-1.97-.12-1.99-1.22v-.17Zm3.28-1.73s0,.02,0,0c.05-.36-.26-.38-.46-.5-.22-.12-.31.05-.41.17-.6.67-.98,1.44-1.17,2.31-.07.38.05.48.41.34.86-.29,1.58-1.32,1.63-2.31Z"></path><path class="cls-4" d="m229.59,52.93c.02-.94.26-1.85.62-2.71.67-1.66,1.63-3.15,2.76-4.52.17-.22.36-.43.55-.62.19-.19.24-.36.14-.6-.14-.5-.19-1.03-.19-1.54,0-.86.26-1.61.79-2.26.46-.58.98-1.06,1.65-1.37.74-.34,1.46.24,1.56.84.07.43-.05.77-.38,1.06-.29.22-.6.19-.82-.1-.12-.17-.22-.22-.38-.07-.65.58-1.18,1.25-1.22,2.16,0,.1-.02.19,0,.29,0,.12-.02.29.1.36.14.05.22-.07.31-.14,1.27-1.03,2.81-1.51,4.32-1.99.17-.05.31-.07.48-.05.07,0,.12.05.12.12.02.07-.02.1-.07.12-.12.05-.22.1-.34.12-1.56.46-2.97,1.2-4.27,2.21-.07.05-.14.12-.22.17-.19.14-.24.29-.17.53.17.67.34,1.35.38,2.04.22,2.35-.22,4.59-1.7,6.51-.38.5-.86.91-1.41,1.22-.34.17-.7.29-1.1.29-.67,0-1.13-.34-1.34-.96-.05-.14-.07-.29-.12-.43-.05-.22-.05-.46-.05-.67Zm4.36-7.4c-.07.02-.1.02-.12.05-.07.07-.14.12-.19.19-1.2,1.3-2.16,2.76-2.85,4.37-.26.62-.48,1.3-.58,1.99-.07.53-.07,1.08.07,1.61.17.6.58.79,1.13.55.22-.1.41-.22.6-.36.74-.58,1.22-1.35,1.56-2.21.62-1.59.74-3.22.62-4.88-.02-.43-.1-.86-.24-1.32Z"></path></g></g></g></g></svg>